<?xml version="1.0" encoding="UTF-8"?>
<svg id="Layer_1" data-name="Layer 1" xmlns="http://www.w3.org/2000/svg" version="1.1" viewBox="0 0 600 600">
  <defs>
    <style>
      .cls-1 {
        fill: #35612f;
      }

      .cls-1, .cls-2 {
        fill-rule: evenodd;
        stroke-width: 0px;
      }

      .cls-3 {
        font-family: NeueMontreal-Medium, 'Neue Montreal';
        font-size: 138.06px;
        font-weight: 500;
      }

      .cls-3, .cls-2 {
        fill: #000;
      }
    </style>
  </defs>
  <g>
    <path class="cls-2" d="M195.4,374.75s45.6,50.99,51.58,86.89c16.46-28.81,139.3-122.96,202.99-135.66-32.73,2.34-147.73,43.49-190.49,93.61-10.26-16.57-25.41-43.33-64.07-44.83Z"/>
    <path class="cls-2" d="M237.85,322.88s91.69-78.23,201.53-80.34c22.99,38.87,27.39,57.65,32.52,60.01-10.17-2.19-33.71-26.68-37.18-36.65-3.48-9.96-19.66-18.52-196.87,56.99Z"/>
    <path class="cls-1" d="M225.2,369.07c10.62,4.61,29.87,25.15,32.9,33.47,8.29-12.61,73.68-50.63,124.6-64.94-22.58,1.91-89.86,30.98-121.14,50.89-7.1-8.33-25.35-20.21-36.35-19.41Z"/>
    <path class="cls-2" d="M155.42,372.75c-107.57,14.93-114.71-110.29-65.63-137.42,7.87,14.08,16.97,33.23,40.07,42.23-14.51-16.96-28.04-43.93-31-67.15-15.88-124.43,199.78-233.4,219.38-67.01,13.75-25.01.27-55.9-5.29-66.17,30.19-21.9,128.02-5.35,76.65,72.68,77.23-95.23,141.76,32.93,50.5,56.28,90.56-13.95,68.73-126.26-22.3-101.08,2.56-27.96-46.21-77.55-113.77-40.94C263.99,5.84,62.58,54.33,82.1,218.38c-63.96,40.56-51.75,186.43,73.32,154.37Z"/>
    <path class="cls-1" d="M145.59,117.82c.59-4.71,105.01-113.13,158.1,4.38-20.74-29.24-69.46-72.34-158.1-4.38Z"/>
    <path class="cls-1" d="M321.58,79.64s3.44,7.36,3.21,9.33c7.33-4.53,39.6-13.38,59.37,6.4-4.8-8.85-21.4-25.59-62.59-15.73Z"/>
    <path class="cls-1" d="M436.96,124.69c28.67-12.95,63.57,34.91,23.31,64.12,19.4-17.91,13.28-64.03-23.31-64.12Z"/>
    <path class="cls-1" d="M88.05,242.18s3.54,8.23,6.71,12.05c-13.71,17.95-26.57,57.63-9.5,88.36-15.03-15.48-27.28-61.23,2.79-100.41Z"/>
  </g>
  <text class="cls-3" transform="translate(5.19 537.2)"><tspan x="0" y="0">Yes, Chef!</tspan></text>
</svg>